<svg xmlns="http://www.w3.org/2000/svg" width="24" height="24" viewBox="0 0 201.26 201.26" style="opacity: 1">
    <g>
        <path fill="#333333" d="M100.63,0L0,100.63l100.63,100.63l100.63-100.63L100.63,0z M100.63,194.178L7.09,100.631L100.63,7.09l93.548,93.541L100.63,194.178z"></path>
        <polygon fill="#16A216" points="100.629,194.177 7.089,100.631 100.63,7.089 194.177,100.629"></polygon>
        <path fill="#333333" d="M114.808,86.459c-7.834-7.828-20.523-7.828-28.349,0c-7.828,7.825-7.828,20.514,0.001,28.349c7.825,7.832,20.514,7.832,28.348,0C122.64,106.973,122.64,94.285,114.808,86.459z M92.121,109.125c-4.689-4.689-4.688-12.3,0.001-17.003c4.703-4.689,12.313-4.689,17.002,0c4.713,4.705,4.713,12.314,0.001,17.003C104.436,113.836,96.825,113.836,92.121,109.125z"></path>
    </g>
</svg>
