<svg xmlns="http://www.w3.org/2000/svg" width="24" height="24" viewBox="0 0 201.26 201.26" style="opacity: 1">
    <g id="shipShape" transform="rotate(0, 100.63, 100.63) translate(0,0)">
        <path fill="#EFD021" d="M105.019,84.875c5.668,1.855,9.785,7.129,9.785,13.412c0,7.826-6.348,14.18-14.174,14.18c-7.825,0-14.173-6.354-14.173-14.18c0-6.438,4.315-11.807,10.189-13.541V27.118l-31.449,75.55v81.517l36.371-31.353l34.496,31.353V98.589l-31.045-71.812V84.875z"></path>
        <path fill="#333333" d="M100.864,0.366L58.11,103.076v97.819l43.646-37.624l41.394,37.624V98.182L100.864,0.366z M136.063,184.184l-34.496-31.353l-36.371,31.353v-81.517l31.449-75.55v57.628c-5.874,1.734-10.189,7.104-10.189,13.541c0,7.826,6.348,14.18,14.173,14.18c7.827,0,14.174-6.354,14.174-14.18c0-6.283-4.117-11.557-9.785-13.412V26.778l31.045,71.812V184.184z"></path>
    </g>
</svg>