<svg xmlns="http://www.w3.org/2000/svg" viewBox="0 0 1801 2048">
<path fill="green" stroke="black" stroke-width="20" d="M670 929q-48 14-91 31-176 73-176 177 0 103 176 175 43 18 90 32-14-97-14-205 0-111 15-210zm644-101q99 25 184 66 204 102 204 246t-204 245q-85 43-185 67-24 98-65 181-102 205-246 205t-245-205q-42-83-67-181-98-25-181-67-205-101-205-245t205-246q83-41 181-65 24-100 67-185 101-204 245-204t246 204q41 85 66 184zm20 100q15 99 15 211 0 109-14 206 49-14 94-33 176-72 176-175 0-104-176-177-45-18-95-32zm-128 545q-96 14-203 14-112 0-212-15 13 48 32 92 72 176 176 176 103 0 176-176 17-43 31-91zM790 808q100-15 213-15 108 0 204 14-14-49-32-94-73-176-176-176-104 0-176 176-19 45-33 95zm438 97q-104-17-225-17-127 0-235 19-18 107-18 233 0 122 17 226 109 19 236 19 122 0 226-17 18-105 18-228 0-127-19-235zm-158.5 164.5q28.5 28.5 28.5 68.5t-28.5 68.5-68.5 28.5-68.5-28.5T904 1138t28.5-68.5 68.5-28.5 68.5 28.5z"/>
</svg>